# xmcd
#
# Track frame offsets:
#	150
#	19597
#	37501
#	56835
#	74582
#	90108
#	107722
#	121334
#	134776
#	153072
#	175322
#	195887
#	227318
#	239265
#	260160
#	273252
#	293019
#	311507
#
# Disc length: 4358 seconds
#
# Revision: 0
# Processed by: cddbd v1.5.2PL0 Copyright (c) Steve Scherf et al.
# Submitted via: EasyCDDAExtractor 12.0.0.1
#
DISCID=e8110412
DTITLE=Various Artist - LEGEND 2009
DYEAR=2009
DGENRE=GREEK
TTITLE0=ΕΛΕΝΗ ΒΙΤΑΛΗ - ΧΑΡΑΜΑΔΑ
TTITLE1=ΠΑΝΟΣ ΚΑΤΣΙΜΙΧΑΣ - ΜΕΧΡΙ ΝΑ ΠΑΡΕΙΣ ΠΑΓΩΤΟ
TTITLE2=ΑΛΧΗΜΙΣΤΕΣ - ΚΑΑΤΡΑ(RADIO MIX)
TTITLE3=ΟΝΑΡ - ΑΝ Μ΄ ΑΓΑΠΑΣ
TTITLE4=ΥΠΟΓΕΙΑ ΡΕΥΜΑΤΑ - ΠΑΡΑΞΕΝΗ ΚΟΠΕΛΑ
TTITLE5=ΠΥΞΙΔΑ - ΣΕ ΖΗΤΩ
TTITLE6=ΟΔΥΣΣΕΑΣ ΝΙΚΟΛΟΠΟΥΛΟΣ - Η ΓΥΝΑΙΚΑ ΤΟΥ ΕΙΚΟΣΤΟΥ ΠΡΩΤΟΥ ΑΙΩΝΑ
TTITLE7=ΒΑΣΙΛΗΣ ΣΚΟΥΛΑΣ - ΣΑΝ ΔΑΚΤΥΛΙΔΙ
TTITLE8=ΜΑΝΟΣ ΞΥΔΟΥΣ - ΠΑΝΤΑ
TTITLE9=ΡΙΤΑ ΑΝΤΩΝΟΠΟΥΛΟΥ - ΜΙΑ ΠΙΣΤΑ ΑΠΟ ΦΩΣΦΟΡΟ
TTITLE10=ΧΡΗΣΤΟΣ ΘΗΒΑΙΟΣ - ΩΡΟΣΚΟΠΙΟ
TTITLE11=MODE PLAGAL - MILES ' LEVENTIKOS (GALLANT SONG)
TTITLE12=ΟΡΦΕΑΣ ΠΕΡΙΔΗΣ - ΚΛΕΦΤΗ ΕΡΩΤΑ
TTITLE13=ΜΥΡΩΝΑΣ ΣΤΡΑΤΗΣ - ΦΛΕΓΟΜΕΝΑ ΑΣΤΕΡΙΑ
TTITLE14=ΚΩΝΣΤΑΝΤΙΝΟΣ  ΜΑΤΣΙΚΑΣ - ΘΟΛΩΜΕΝΟ ΜΥΑΛΟ
TTITLE15=ΜΑΡΙΑ ΦΑΡΑΝΤΟΥΡΗ - ΝΑΥΑΓΟΣ
TTITLE16=ΜΙΚΗΣ ΘΕΟΔΩΡΑΚΗΣ - ΣΤΟΝ ΚΑΤΩ ΚΟΣΜΟ
TTITLE17=ΠΥΡΟΣ ΑΙΘΗΡ - ΕΛΛΗΣΠΟΝΤΟΣ(ΜΑΝΤΙΛΑΤΟΣ ΧΟΡΟΣ)
EXTD=
EXTT0=
EXTT1=
EXTT2=
EXTT3=
EXTT4=
EXTT5=
EXTT6=
EXTT7=
EXTT8=
EXTT9=
EXTT10=
EXTT11=
EXTT12=
EXTT13=
EXTT14=
EXTT15=
EXTT16=
EXTT17=
PLAYORDER=
